<svg xmlns="http://www.w3.org/2000/svg" viewBox="0 0 1200 675" role="img" aria-label="Canary Islands trip placeholder">
  <defs><linearGradient id="g" x1="0" x2="1" y1="0" y2="1"><stop stop-color="#9edfe7"/><stop offset="1" stop-color="#f7d29b"/></linearGradient></defs>
  <rect width="1200" height="675" fill="url(#g)"/><circle cx="960" cy="145" r="72" fill="#fff1a8"/><path d="M0 455c170-60 310-45 455-10s285 55 460 5c120-34 210-32 285-10v235H0z" fill="#1c7c8c" opacity=".75"/><path d="M150 492c220 28 315 2 484 0 178-3 276 44 416 18" fill="none" stroke="#fff" stroke-width="16" opacity=".8"/><path d="M355 430c95-150 170-205 252-95 53-75 107-90 173 11 34 52 72 79 112 84z" fill="#fffdf8" opacity=".85"/><text x="72" y="120" font-family="Arial, Helvetica, sans-serif" font-size="54" font-weight="700" fill="#17313b">Trip image placeholder</text><text x="72" y="178" font-family="Arial, Helvetica, sans-serif" font-size="30" fill="#17313b">Add accommodation JPGs later in public/images/accommodations</text>
</svg>
